<svg width="289" height="64" viewBox="0 0 289 64" fill="none" xmlns="http://www.w3.org/2000/svg">
<path d="M60.2789 38.4566L72.1072 29.7106C72.1072 23.7134 70.0795 17.966 66.362 12.9683L38.8191 31.8346V63.1952H44.0573C62.4756 63.1952 77.5144 52.2003 77.5144 38.4566H60.2789Z" fill="#201B21"/>
<path d="M17.6972 25.0877L5.869 33.8337C5.869 39.831 7.8967 45.5783 11.6141 50.576L39.1571 31.7097V0.349121H33.9189C15.5006 0.349121 0.461792 11.3441 0.461792 25.0877H17.6972V25.0877Z" fill="#201B21"/>
<path d="M79.5303 36.2571C79.1463 36.2571 78.8343 36.1691 78.5943 35.9931C78.3703 35.8171 78.2343 35.5851 78.1863 35.2971C78.1383 34.9931 78.1943 34.6571 78.3543 34.2891L84.6903 20.2491C84.8983 19.7851 85.1463 19.4571 85.4343 19.2651C85.7383 19.0571 86.0823 18.9531 86.4663 18.9531C86.8343 18.9531 87.1623 19.0571 87.4503 19.2651C87.7543 19.4571 88.0103 19.7851 88.2183 20.2491L94.5783 34.2891C94.7543 34.6571 94.8183 34.9931 94.7703 35.2971C94.7223 35.6011 94.5863 35.8411 94.3623 36.0171C94.1383 36.1771 93.8423 36.2571 93.4743 36.2571C93.0263 36.2571 92.6743 36.1531 92.4183 35.9451C92.1783 35.7211 91.9623 35.3851 91.7703 34.9371L90.2103 31.3131L91.5063 32.1531H81.3783L82.6743 31.3131L81.1383 34.9371C80.9303 35.4011 80.7143 35.7371 80.4903 35.9451C80.2663 36.1531 79.9463 36.2571 79.5303 36.2571ZM86.4183 22.4811L83.0583 30.4731L82.4343 29.7051H90.4503L89.8503 30.4731L86.4663 22.4811H86.4183ZM105.006 36.3051C103.134 36.3051 101.55 35.9531 100.254 35.2491C98.9741 34.5451 97.9981 33.5451 97.3261 32.2491C96.6541 30.9531 96.3181 29.4171 96.3181 27.6411C96.3181 26.2971 96.5101 25.0891 96.8941 24.0171C97.2941 22.9451 97.8621 22.0331 98.5981 21.2811C99.3501 20.5131 100.262 19.9291 101.334 19.5291C102.406 19.1131 103.622 18.9051 104.982 18.9051C105.878 18.9051 106.774 19.0171 107.67 19.2411C108.582 19.4491 109.438 19.8091 110.238 20.3211C110.51 20.4971 110.686 20.7131 110.766 20.9691C110.862 21.2251 110.878 21.4891 110.814 21.7611C110.75 22.0171 110.63 22.2411 110.454 22.4331C110.278 22.6251 110.054 22.7451 109.782 22.7931C109.526 22.8411 109.238 22.7771 108.918 22.6011C108.31 22.2491 107.694 21.9931 107.07 21.8331C106.446 21.6731 105.75 21.5931 104.982 21.5931C103.798 21.5931 102.798 21.8331 101.982 22.3131C101.166 22.7771 100.55 23.4571 100.134 24.3531C99.7341 25.2491 99.5341 26.3451 99.5341 27.6411C99.5341 29.6091 100.006 31.1051 100.95 32.1291C101.894 33.1531 103.294 33.6651 105.15 33.6651C105.79 33.6651 106.438 33.6011 107.094 33.4731C107.75 33.3451 108.39 33.1691 109.014 32.9451L108.414 34.3131V29.2011H105.774C105.374 29.2011 105.062 29.0971 104.838 28.8891C104.63 28.6811 104.526 28.4011 104.526 28.0491C104.526 27.6811 104.63 27.4011 104.838 27.2091C105.062 27.0171 105.374 26.9211 105.774 26.9211H109.734C110.134 26.9211 110.438 27.0331 110.646 27.2571C110.87 27.4651 110.982 27.7691 110.982 28.1691V34.0011C110.982 34.3531 110.91 34.6491 110.766 34.8891C110.638 35.1291 110.422 35.3051 110.118 35.4171C109.414 35.6731 108.606 35.8891 107.694 36.0651C106.782 36.2251 105.886 36.3051 105.006 36.3051ZM116.078 36.2571C115.582 36.2571 115.198 36.1211 114.926 35.8491C114.67 35.5611 114.542 35.1691 114.542 34.6731V20.7051C114.542 20.1931 114.678 19.8091 114.95 19.5531C115.222 19.2811 115.606 19.1451 116.102 19.1451H121.886C123.742 19.1451 125.174 19.5931 126.182 20.4891C127.19 21.3691 127.694 22.6091 127.694 24.2091C127.694 25.2491 127.462 26.1451 126.998 26.8971C126.55 27.6491 125.894 28.2251 125.03 28.6251C124.166 29.0251 123.118 29.2251 121.886 29.2251L122.102 28.8651H122.894C123.55 28.8651 124.118 29.0251 124.598 29.3451C125.094 29.6651 125.526 30.1691 125.894 30.8571L127.694 34.1931C127.886 34.5291 127.974 34.8571 127.958 35.1771C127.942 35.4971 127.822 35.7611 127.598 35.9691C127.374 36.1611 127.046 36.2571 126.614 36.2571C126.182 36.2571 125.83 36.1691 125.558 35.9931C125.286 35.8011 125.046 35.5131 124.838 35.1291L122.414 30.6651C122.126 30.1211 121.782 29.7611 121.382 29.5851C120.998 29.3931 120.502 29.2971 119.894 29.2971H117.614V34.6731C117.614 35.1691 117.486 35.5611 117.23 35.8491C116.974 36.1211 116.59 36.2571 116.078 36.2571ZM117.614 27.0171H121.358C122.462 27.0171 123.294 26.7931 123.854 26.3451C124.43 25.8811 124.718 25.1931 124.718 24.2811C124.718 23.3851 124.43 22.7131 123.854 22.2651C123.294 21.8011 122.462 21.5691 121.358 21.5691H117.614V27.0171ZM132.531 36.2571C132.035 36.2571 131.651 36.1211 131.379 35.8491C131.123 35.5611 130.995 35.1691 130.995 34.6731V20.5371C130.995 20.0251 131.123 19.6331 131.379 19.3611C131.651 19.0891 132.035 18.9531 132.531 18.9531C133.027 18.9531 133.403 19.0891 133.659 19.3611C133.931 19.6331 134.067 20.0251 134.067 20.5371V34.6731C134.067 35.1691 133.939 35.5611 133.683 35.8491C133.427 36.1211 133.043 36.2571 132.531 36.2571ZM139.209 36.2571C138.761 36.2571 138.417 36.1291 138.177 35.8731C137.937 35.6171 137.817 35.2651 137.817 34.8171V20.3931C137.817 19.9291 137.945 19.5771 138.201 19.3371C138.457 19.0811 138.809 18.9531 139.257 18.9531C139.657 18.9531 139.969 19.0331 140.193 19.1931C140.433 19.3371 140.649 19.5931 140.841 19.9611L146.769 30.9291H146.001L151.929 19.9611C152.121 19.5931 152.329 19.3371 152.553 19.1931C152.777 19.0331 153.089 18.9531 153.489 18.9531C153.937 18.9531 154.281 19.0811 154.521 19.3371C154.761 19.5771 154.881 19.9291 154.881 20.3931V34.8171C154.881 35.2651 154.761 35.6171 154.521 35.8731C154.297 36.1291 153.953 36.2571 153.489 36.2571C153.041 36.2571 152.697 36.1291 152.457 35.8731C152.217 35.6171 152.097 35.2651 152.097 34.8171V23.7051H152.625L147.585 32.8971C147.425 33.1691 147.257 33.3691 147.081 33.4971C146.905 33.6251 146.665 33.6891 146.361 33.6891C146.057 33.6891 145.809 33.6251 145.617 33.4971C145.425 33.3531 145.257 33.1531 145.113 32.8971L140.025 23.6811H140.601V34.8171C140.601 35.2651 140.481 35.6171 140.241 35.8731C140.017 36.1291 139.673 36.2571 139.209 36.2571ZM158.772 36.2571C158.388 36.2571 158.076 36.1691 157.836 35.9931C157.612 35.8171 157.476 35.5851 157.428 35.2971C157.38 34.9931 157.436 34.6571 157.596 34.2891L163.932 20.2491C164.14 19.7851 164.388 19.4571 164.676 19.2651C164.98 19.0571 165.324 18.9531 165.708 18.9531C166.076 18.9531 166.404 19.0571 166.692 19.2651C166.996 19.4571 167.252 19.7851 167.46 20.2491L173.82 34.2891C173.996 34.6571 174.06 34.9931 174.012 35.2971C173.964 35.6011 173.828 35.8411 173.604 36.0171C173.38 36.1771 173.084 36.2571 172.716 36.2571C172.268 36.2571 171.916 36.1531 171.66 35.9451C171.42 35.7211 171.204 35.3851 171.012 34.9371L169.452 31.3131L170.748 32.1531H160.62L161.916 31.3131L160.38 34.9371C160.172 35.4011 159.956 35.7371 159.732 35.9451C159.508 36.1531 159.188 36.2571 158.772 36.2571ZM165.66 22.4811L162.3 30.4731L161.676 29.7051H169.692L169.092 30.4731L165.708 22.4811H165.66ZM180.205 36.2571C179.709 36.2571 179.325 36.1211 179.053 35.8491C178.797 35.5611 178.669 35.1691 178.669 34.6731V21.7131H173.989C173.573 21.7131 173.245 21.6011 173.005 21.3771C172.781 21.1371 172.669 20.8171 172.669 20.4171C172.669 20.0011 172.781 19.6891 173.005 19.4811C173.245 19.2571 173.573 19.1451 173.989 19.1451H186.421C186.837 19.1451 187.157 19.2571 187.381 19.4811C187.621 19.6891 187.741 20.0011 187.741 20.4171C187.741 20.8171 187.621 21.1371 187.381 21.3771C187.157 21.6011 186.837 21.7131 186.421 21.7131H181.741V34.6731C181.741 35.1691 181.613 35.5611 181.357 35.8491C181.101 36.1211 180.717 36.2571 180.205 36.2571ZM191.127 36.0651C190.599 36.0651 190.191 35.9291 189.903 35.6571C189.631 35.3691 189.495 34.9611 189.495 34.4331V20.7771C189.495 20.2491 189.631 19.8491 189.903 19.5771C190.191 19.2891 190.599 19.1451 191.127 19.1451H199.695C200.095 19.1451 200.399 19.2491 200.607 19.4571C200.831 19.6651 200.943 19.9611 200.943 20.3451C200.943 20.7451 200.831 21.0571 200.607 21.2811C200.399 21.4891 200.095 21.5931 199.695 21.5931H192.447V26.2491H199.167C199.583 26.2491 199.895 26.3531 200.103 26.5611C200.311 26.7691 200.415 27.0731 200.415 27.4731C200.415 27.8731 200.311 28.1771 200.103 28.3851C199.895 28.5931 199.583 28.6971 199.167 28.6971H192.447V33.6171H199.695C200.095 33.6171 200.399 33.7211 200.607 33.9291C200.831 34.1371 200.943 34.4411 200.943 34.8411C200.943 35.2411 200.831 35.5451 200.607 35.7531C200.399 35.9611 200.095 36.0651 199.695 36.0651H191.127Z" fill="black"/>
</svg>
